<svg xmlns="http://www.w3.org/2000/svg" viewBox="0 0 49.5 40.5"><defs><style>.cls-1{fill:#f7aa00;}</style></defs><g id="Layer_2" data-name="Layer 2"><g id="icons"><circle class="cls-1" cx="7.5" cy="10.5" r="1.5"/><rect class="cls-1" x="15" y="6.75" width="1.5" height="6"/><path class="cls-1" d="M39.75,24.53V21.8L37,20l-2.13,4.25A3,3,0,0,0,33,27a2.91,2.91,0,0,0,.62,1.8L33.1,36h4.51l.49-6.86A3,3,0,0,0,39,27a2.67,2.67,0,0,0-.11-.75ZM36,28.5A1.5,1.5,0,1,1,37.5,27,1.5,1.5,0,0,1,36,28.5Z"/><polygon class="cls-1" points="39.42 13.5 48 13.5 48 4.5 40.5 2.02 39 0 28.5 0 27 2.02 21 4.5 21 13.5 28.08 13.5 39.42 13.5"/><path class="cls-1" d="M12,13.5h1.5V6h-6L3,9v2.25H.38a.38.38,0,1,0,0,.75H3v1.5H.75a.75.75,0,0,0,0,1.5H10.5Zm-4.5-.75A2.25,2.25,0,1,1,9.75,10.5,2.25,2.25,0,0,1,7.5,12.75Z"/><path class="cls-1" d="M47.73,36l-1.62-7.55A2.93,2.93,0,0,0,45.75,25V21.38L47.57,15H24a3,3,0,0,0-2.76,4.17l-1.75,5.25A3,3,0,0,0,18,27a2.88,2.88,0,0,0,.22,1.1L15.4,36h4.77l1-2.93,3.86,1.86,2-4.05-3.88-1.83A2.92,2.92,0,0,0,24,27a2.85,2.85,0,0,0-.24-1.17l1.43-4.28L29.62,18h7.13l4.5,3v4a3,3,0,0,0,.51,4.41L43.14,36ZM21,28.5A1.5,1.5,0,1,1,22.5,27,1.5,1.5,0,0,1,21,28.5Zm3-9A1.5,1.5,0,1,1,25.5,18,1.5,1.5,0,0,1,24,19.5Zm19.5-3A1.5,1.5,0,1,1,42,18,1.5,1.5,0,0,1,43.5,16.5ZM42,27a1.5,1.5,0,1,1,1.5,1.5A1.5,1.5,0,0,1,42,27Z"/><rect class="cls-1" x="18" y="6.75" width="1.5" height="6"/><polygon class="cls-1" points="29.6 30.73 28.51 31.25 26.08 36.32 26.35 37.49 28.37 38.46 31.62 31.7 29.6 30.73"/><polygon class="cls-1" points="48.56 37.5 42.94 37.5 42 38.25 42 40.5 49.5 40.5 49.5 38.25 48.56 37.5"/><polygon class="cls-1" points="32.44 37.5 31.5 38.25 31.5 40.5 39 40.5 39 38.25 38.06 37.5 32.44 37.5"/><polygon class="cls-1" points="14.44 37.5 13.5 38.25 13.5 40.5 21 40.5 21 38.25 20.06 37.5 14.44 37.5"/><path class="cls-1" d="M14.32,29.87l1.43.68.88-2.47A4.43,4.43,0,0,1,16.5,27a4.53,4.53,0,0,1,1.72-3.53l1.63-4.88L13.54,24h0a3,3,0,0,0,0,6A2.76,2.76,0,0,0,14.32,29.87ZM12,27a1.5,1.5,0,1,1,1.5,1.5A1.5,1.5,0,0,1,12,27Z"/></g></g></svg>