<svg xmlns="http://www.w3.org/2000/svg" viewBox="0 0 39 42"><defs><style>.cls-1{fill:#245578;}</style></defs><g id="Layer_2" data-name="Layer 2"><g id="icons"><path class="cls-1" d="M16,13.41A48.63,48.63,0,0,0,13.44,1.33a14.8,14.8,0,0,0-4.38,3.2A30.37,30.37,0,0,1,16,13.41Z"/><path class="cls-1" d="M29.94,4.53a14.8,14.8,0,0,0-4.38-3.2A48.63,48.63,0,0,0,23,13.41,30.37,30.37,0,0,1,29.94,4.53Z"/><path class="cls-1" d="M33.68,9.89a25.82,25.82,0,0,0-7.89,5.74.36.36,0,0,1-.29.13.37.37,0,0,1-.24-.08.38.38,0,0,1-.05-.53,27,27,0,0,1,8.11-5.92,22.25,22.25,0,0,0-2.87-4.14,31,31,0,0,0-7.6,10.44l-.07.08-.05.06a.33.33,0,0,1-.23.09h0l-.1,0s0-.05-.06-.06l-.1-.1a.29.29,0,0,1-.05-.13s0,0,0-.08c0-.52.58-9,2.76-14.34A14.57,14.57,0,0,0,14.12,1c2.18,5.31,2.72,13.82,2.76,14.34,0,0,0,.05,0,.08a.29.29,0,0,1-.05.13l-.1.1s0,0-.06.06l-.1,0h0a.33.33,0,0,1-.23-.09l-.05-.06-.07-.08A31,31,0,0,0,8.55,5.09,22.25,22.25,0,0,0,5.68,9.23a27,27,0,0,1,8.11,5.92.38.38,0,0,1,0,.53.37.37,0,0,1-.24.08.36.36,0,0,1-.29-.13A25.82,25.82,0,0,0,5.32,9.89C0,20.18,0,34.81,0,34.81A2.74,2.74,0,0,0,2.79,37.5H9l3.73,3.15,2.71-1.36L19.5,42l4.06-2.71,2.71,1.36L30,37.5h6.21A2.74,2.74,0,0,0,39,34.81S39,20.18,33.68,9.89Zm-11,8.89h2.62a1.46,1.46,0,0,1,.19.72,1.5,1.5,0,0,1-3,0A1.46,1.46,0,0,1,22.69,18.78ZM19.5,22.5c2.13,0,3.86,1,3.86,2.25a1.25,1.25,0,0,1-.08.42,1.8,1.8,0,0,0-.57-.1,1.92,1.92,0,0,0-1.91,1.79,6.11,6.11,0,0,1-2.6,0,1.89,1.89,0,0,0-2.49-1.69,1.54,1.54,0,0,1-.07-.42C15.64,23.51,17.37,22.5,19.5,22.5Zm-5.81-3.72h2.62a1.46,1.46,0,0,1,.19.72,1.5,1.5,0,0,1-3,0A1.46,1.46,0,0,1,13.69,18.78Zm-5.44,12a.75.75,0,0,1-1.5,0c0-3.11,3.06-5.71,7.53-6.86a3,3,0,0,0-.14.86,3.1,3.1,0,0,0,.12.72C10.72,26.49,8.25,28.5,8.25,30.75Zm17.23,2.66a.5.5,0,0,1-.47.37H15.2A1.77,1.77,0,0,1,13.49,32a1.72,1.72,0,0,1,1.72-1.72,1.86,1.86,0,0,1,.42,0L25,32.78l.12,0A.49.49,0,0,1,25.48,33.41Zm6-1.91a.76.76,0,0,1-.75-.75c0-2.25-2.47-4.26-6-5.28a3.1,3.1,0,0,0,.12-.72,3,3,0,0,0-.14-.86c4.47,1.15,7.53,3.75,7.53,6.86A.76.76,0,0,1,31.5,31.5Z"/></g></g></svg>