<svg xmlns="http://www.w3.org/2000/svg" viewBox="0 0 42 36"><defs><style>.cls-1{fill:#f7aa00;}</style></defs><g id="Layer_2" data-name="Layer 2"><g id="icons"><path class="cls-1" d="M12,21.75a3.68,3.68,0,0,1-.58-.06L6.05,36H18L12.58,21.69A3.68,3.68,0,0,1,12,21.75Z"/><path class="cls-1" d="M8.33,18.75H0l4.65,16.7L10,21.17A3.73,3.73,0,0,1,8.33,18.75Z"/><path class="cls-1" d="M15.67,18.75A3.73,3.73,0,0,1,14,21.17l5.36,14.28,4.45-16.7Z"/><path class="cls-1" d="M10,14.83,4.65.55,0,17.25H8.33A3.73,3.73,0,0,1,10,14.83Z"/><path class="cls-1" d="M12,14.25a3.68,3.68,0,0,1,.58.06L18,0H6.05l5.37,14.31A3.68,3.68,0,0,1,12,14.25Z"/><path class="cls-1" d="M15.67,17.25H23.8L19.35.55,14,14.83A3.73,3.73,0,0,1,15.67,17.25Z"/><circle class="cls-1" cx="12" cy="18" r="1.5"/><path class="cls-1" d="M24.89,15.51,25.55,18l-.66,2.49a2.85,2.85,0,1,0,0-5Z"/><path class="cls-1" d="M26.62,14.4s0,0,0,0a3.61,3.61,0,0,1,1.91.78,0,0,0,0,1,0,0l1.4-1.41a5.64,5.64,0,0,0-3.31-1.37Z"/><path class="cls-1" d="M24.17,12.82l.52,2a3.46,3.46,0,0,1,1.2-.34s0,0,0,0v-2A5.71,5.71,0,0,0,24.17,12.82Z"/><path class="cls-1" d="M25.88,23.59v-2s0,0,0,0a3.46,3.46,0,0,1-1.2-.34l-.52,2A5.71,5.71,0,0,0,25.88,23.59Z"/><path class="cls-1" d="M31.84,18.38h-2l0,0A3.61,3.61,0,0,1,29,20.27h0l1.41,1.4A5.63,5.63,0,0,0,31.84,18.38Z"/><path class="cls-1" d="M30.47,14.32l-1.41,1.4h0a3.61,3.61,0,0,1,.78,1.91l0,0h2A5.63,5.63,0,0,0,30.47,14.32Z"/><path class="cls-1" d="M29.93,22.22l-1.4-1.41a0,0,0,0,1,0,0,3.61,3.61,0,0,1-1.91.78s0,0,0,0v2A5.64,5.64,0,0,0,29.93,22.22Z"/><path class="cls-1" d="M37.2,0H22.8l-1,3.84L23.15,9H25.5a9,9,0,0,1,9,9h0a9,9,0,0,1-9,9H23.15l-1.37,5.16,1,3.84H37.2L42,18Z"/></g></g></svg>